<?xml version="1.0" encoding="UTF-8" standalone="no"?>
<!DOCTYPE svg PUBLIC "-//W3C//DTD SVG 1.1//EN"
 "http://www.w3.org/Graphics/SVG/1.1/DTD/svg11.dtd">
<!-- Generated by graphviz version 2.40.1 (20161225.0304)
 -->
<!-- Title: dependencies Pages: 1 -->
<svg width="531pt" height="211pt"
 viewBox="0.00 0.00 531.00 211.00" xmlns="http://www.w3.org/2000/svg" xmlns:xlink="http://www.w3.org/1999/xlink">
<g id="graph0" class="graph" transform="scale(1 1) rotate(0) translate(4 207)">
<title>dependencies</title>
<polygon fill="#ffffff" stroke="transparent" points="-4,4 -4,-207 527,-207 527,4 -4,4"/>
<text text-anchor="start" x="240.5091" y="-42.4" font-family="sans-serif" font-weight="bold" font-size="14.00" fill="#000000">Legend</text>
<polygon fill="#ffffb3" stroke="transparent" points="27.5,-10 27.5,-30 47.5,-30 47.5,-10 27.5,-10"/>
<text text-anchor="start" x="51.129" y="-15.4" font-family="sans-serif" font-size="14.00" fill="#000000"> &#160;Declarations</text>
<polygon fill="#8dd3c7" stroke="transparent" points="140.5,-10 140.5,-30 160.5,-30 160.5,-10 140.5,-10"/>
<text text-anchor="start" x="164.2251" y="-15.4" font-family="sans-serif" font-size="14.00" fill="#000000"> &#160;Module</text>
<polygon fill="#80b1d3" stroke="transparent" points="226.5,-10 226.5,-30 246.5,-30 246.5,-10 226.5,-10"/>
<text text-anchor="start" x="250.2812" y="-15.4" font-family="sans-serif" font-size="14.00" fill="#000000"> &#160;Bootstrap</text>
<polygon fill="#fdb462" stroke="transparent" points="323.5,-10 323.5,-30 343.5,-30 343.5,-10 323.5,-10"/>
<text text-anchor="start" x="347.1732" y="-15.4" font-family="sans-serif" font-size="14.00" fill="#000000"> &#160;Providers</text>
<polygon fill="#fb8072" stroke="transparent" points="419.5,-10 419.5,-30 439.5,-30 439.5,-10 419.5,-10"/>
<text text-anchor="start" x="443.2258" y="-15.4" font-family="sans-serif" font-size="14.00" fill="#000000"> &#160;Exports</text>
<g id="clust1" class="cluster">
<title>cluster_HeroesPageModule</title>
<polygon fill="none" stroke="#000000" stroke-dasharray="1,5" points="8,-70 8,-195 515,-195 515,-70 8,-70"/>
</g>
<g id="clust2" class="cluster">
<title>cluster_HeroesPageModule_declarations</title>
<polygon fill="none" stroke="#000000" points="210,-78 210,-130 507,-130 507,-78 210,-78"/>
</g>
<g id="clust5" class="cluster">
<title>cluster_HeroesPageModule_imports</title>
<polygon fill="none" stroke="#000000" points="16,-78 16,-130 202,-130 202,-78 16,-78"/>
</g>
<!-- HeroesComponent -->
<g id="node1" class="node">
<title>HeroesComponent</title>
<polygon fill="#ffffb3" stroke="#000000" points="499.4734,-122 378.5266,-122 378.5266,-86 499.4734,-86 499.4734,-122"/>
<text text-anchor="middle" x="439" y="-99.8" font-family="Times,serif" font-size="14.00" fill="#000000">HeroesComponent</text>
</g>
<!-- HeroesPageModule -->
<g id="node3" class="node">
<title>HeroesPageModule</title>
<polygon fill="#8dd3c7" stroke="#000000" points="352.4032,-187 349.4032,-191 328.4032,-191 325.4032,-187 225.5968,-187 225.5968,-151 352.4032,-151 352.4032,-187"/>
<text text-anchor="middle" x="289" y="-164.8" font-family="Times,serif" font-size="14.00" fill="#000000">HeroesPageModule</text>
</g>
<!-- HeroesComponent&#45;&gt;HeroesPageModule -->
<g id="edge1" class="edge">
<title>HeroesComponent&#45;&gt;HeroesPageModule</title>
<path fill="none" stroke="#000000" d="M439,-122.1061C439,-141.3391 439,-169 439,-169 439,-169 362.6135,-169 362.6135,-169"/>
<polygon fill="#000000" stroke="#000000" points="362.6135,-165.5001 352.6135,-169 362.6135,-172.5001 362.6135,-165.5001"/>
</g>
<!-- HeroesListComponent -->
<g id="node2" class="node">
<title>HeroesListComponent</title>
<polygon fill="#ffffb3" stroke="#000000" points="360.252,-122 217.748,-122 217.748,-86 360.252,-86 360.252,-122"/>
<text text-anchor="middle" x="289" y="-99.8" font-family="Times,serif" font-size="14.00" fill="#000000">HeroesListComponent</text>
</g>
<!-- HeroesListComponent&#45;&gt;HeroesPageModule -->
<g id="edge2" class="edge">
<title>HeroesListComponent&#45;&gt;HeroesPageModule</title>
<path fill="none" stroke="#000000" d="M289,-122.1061C289,-122.1061 289,-140.991 289,-140.991"/>
<polygon fill="#000000" stroke="#000000" points="285.5001,-140.9909 289,-150.991 292.5001,-140.991 285.5001,-140.9909"/>
</g>
<!-- MyCustomMaterialModule -->
<g id="node4" class="node">
<title>MyCustomMaterialModule</title>
<polygon fill="#8dd3c7" stroke="#000000" points="193.9776,-122 190.9776,-126 169.9776,-126 166.9776,-122 24.0224,-122 24.0224,-86 193.9776,-86 193.9776,-122"/>
<text text-anchor="middle" x="109" y="-99.8" font-family="Times,serif" font-size="14.00" fill="#000000">MyCustomMaterialModule</text>
</g>
<!-- MyCustomMaterialModule&#45;&gt;HeroesPageModule -->
<g id="edge3" class="edge">
<title>MyCustomMaterialModule&#45;&gt;HeroesPageModule</title>
<path fill="none" stroke="#000000" d="M109,-122.1061C109,-141.3391 109,-169 109,-169 109,-169 215.7918,-169 215.7918,-169"/>
<polygon fill="#000000" stroke="#000000" points="215.7919,-172.5001 225.7918,-169 215.7918,-165.5001 215.7919,-172.5001"/>
</g>
</g>
</svg>
