<?xml version="1.0" encoding="UTF-8" standalone="no"?>
<!DOCTYPE svg PUBLIC "-//W3C//DTD SVG 1.1//EN"
 "http://www.w3.org/Graphics/SVG/1.1/DTD/svg11.dtd">
<!-- Generated by graphviz version 2.40.1 (20161225.0304)
 -->
<!-- Title: dependencies Pages: 1 -->
<svg width="778pt" height="284pt"
 viewBox="0.00 0.00 778.00 284.00" xmlns="http://www.w3.org/2000/svg" xmlns:xlink="http://www.w3.org/1999/xlink">
<g id="graph0" class="graph" transform="scale(1 1) rotate(0) translate(4 280)">
<title>dependencies</title>
<polygon fill="#ffffff" stroke="transparent" points="-4,4 -4,-280 774,-280 774,4 -4,4"/>
<text text-anchor="start" x="364.0091" y="-42.4" font-family="sans-serif" font-weight="bold" font-size="14.00" fill="#000000">Legend</text>
<polygon fill="#ffffb3" stroke="transparent" points="151,-10 151,-30 171,-30 171,-10 151,-10"/>
<text text-anchor="start" x="174.629" y="-15.4" font-family="sans-serif" font-size="14.00" fill="#000000"> &#160;Declarations</text>
<polygon fill="#8dd3c7" stroke="transparent" points="264,-10 264,-30 284,-30 284,-10 264,-10"/>
<text text-anchor="start" x="287.7251" y="-15.4" font-family="sans-serif" font-size="14.00" fill="#000000"> &#160;Module</text>
<polygon fill="#80b1d3" stroke="transparent" points="350,-10 350,-30 370,-30 370,-10 350,-10"/>
<text text-anchor="start" x="373.7812" y="-15.4" font-family="sans-serif" font-size="14.00" fill="#000000"> &#160;Bootstrap</text>
<polygon fill="#fdb462" stroke="transparent" points="447,-10 447,-30 467,-30 467,-10 447,-10"/>
<text text-anchor="start" x="470.6732" y="-15.4" font-family="sans-serif" font-size="14.00" fill="#000000"> &#160;Providers</text>
<polygon fill="#fb8072" stroke="transparent" points="543,-10 543,-30 563,-30 563,-10 543,-10"/>
<text text-anchor="start" x="566.7258" y="-15.4" font-family="sans-serif" font-size="14.00" fill="#000000"> &#160;Exports</text>
<g id="clust1" class="cluster">
<title>cluster_AppModule</title>
<polygon fill="none" stroke="#000000" stroke-dasharray="1,5" points="8,-70 8,-268 762,-268 762,-70 8,-70"/>
</g>
<g id="clust2" class="cluster">
<title>cluster_AppModule_declarations</title>
<polygon fill="none" stroke="#000000" points="356,-78 356,-130 754,-130 754,-78 356,-78"/>
</g>
<g id="clust6" class="cluster">
<title>cluster_AppModule_imports</title>
<polygon fill="none" stroke="#000000" points="16,-78 16,-130 348,-130 348,-78 16,-78"/>
</g>
<g id="clust8" class="cluster">
<title>cluster_AppModule_bootstrap</title>
<polygon fill="none" stroke="#000000" points="363,-208 363,-260 487,-260 487,-208 363,-208"/>
</g>
<!-- AppComponent -->
<g id="node1" class="node">
<title>AppComponent</title>
<polygon fill="#ffffb3" stroke="#000000" points="745.9399,-122 640.0601,-122 640.0601,-86 745.9399,-86 745.9399,-122"/>
<text text-anchor="middle" x="693" y="-99.8" font-family="Times,serif" font-size="14.00" fill="#000000">AppComponent</text>
</g>
<!-- AppModule -->
<g id="node4" class="node">
<title>AppModule</title>
<polygon fill="#8dd3c7" stroke="#000000" points="466.6571,-187 463.6571,-191 442.6571,-191 439.6571,-187 383.3429,-187 383.3429,-151 466.6571,-151 466.6571,-187"/>
<text text-anchor="middle" x="425" y="-164.8" font-family="Times,serif" font-size="14.00" fill="#000000">AppModule</text>
</g>
<!-- AppComponent&#45;&gt;AppModule -->
<g id="edge1" class="edge">
<title>AppComponent&#45;&gt;AppModule</title>
<path fill="none" stroke="#000000" d="M693,-122.2843C693,-143.3211 693,-175 693,-175 693,-175 476.875,-175 476.875,-175"/>
<polygon fill="#000000" stroke="#000000" points="476.875,-171.5001 466.875,-175 476.875,-178.5001 476.875,-171.5001"/>
</g>
<!-- FooterComponent -->
<g id="node2" class="node">
<title>FooterComponent</title>
<polygon fill="#ffffb3" stroke="#000000" points="621.8809,-122 504.1191,-122 504.1191,-86 621.8809,-86 621.8809,-122"/>
<text text-anchor="middle" x="563" y="-99.8" font-family="Times,serif" font-size="14.00" fill="#000000">FooterComponent</text>
</g>
<!-- FooterComponent&#45;&gt;AppModule -->
<g id="edge2" class="edge">
<title>FooterComponent&#45;&gt;AppModule</title>
<path fill="none" stroke="#000000" d="M563,-122.0225C563,-139.3734 563,-163 563,-163 563,-163 476.779,-163 476.779,-163"/>
<polygon fill="#000000" stroke="#000000" points="476.7791,-159.5001 466.779,-163 476.779,-166.5001 476.7791,-159.5001"/>
</g>
<!-- HeaderComponent -->
<g id="node3" class="node">
<title>HeaderComponent</title>
<polygon fill="#ffffb3" stroke="#000000" points="485.7437,-122 364.2563,-122 364.2563,-86 485.7437,-86 485.7437,-122"/>
<text text-anchor="middle" x="425" y="-99.8" font-family="Times,serif" font-size="14.00" fill="#000000">HeaderComponent</text>
</g>
<!-- HeaderComponent&#45;&gt;AppModule -->
<g id="edge3" class="edge">
<title>HeaderComponent&#45;&gt;AppModule</title>
<path fill="none" stroke="#000000" d="M425,-122.1061C425,-122.1061 425,-140.991 425,-140.991"/>
<polygon fill="#000000" stroke="#000000" points="421.5001,-140.9909 425,-150.991 428.5001,-140.991 421.5001,-140.9909"/>
</g>
<!-- AppComponent  -->
<g id="node7" class="node">
<title>AppComponent </title>
<polygon fill="#80b1d3" stroke="#000000" points="479.439,-252 370.561,-252 370.561,-216 479.439,-216 479.439,-252"/>
<text text-anchor="middle" x="425" y="-229.8" font-family="Times,serif" font-size="14.00" fill="#000000">AppComponent </text>
</g>
<!-- AppModule&#45;&gt;AppComponent  -->
<g id="edge6" class="edge">
<title>AppModule&#45;&gt;AppComponent </title>
<path fill="none" stroke="#000000" stroke-dasharray="1,5" d="M425,-187.1061C425,-187.1061 425,-205.991 425,-205.991"/>
<polygon fill="#000000" stroke="#000000" points="421.5001,-205.9909 425,-215.991 428.5001,-205.991 421.5001,-205.9909"/>
</g>
<!-- AppRoutingModule -->
<g id="node5" class="node">
<title>AppRoutingModule</title>
<polygon fill="#8dd3c7" stroke="#000000" points="340.2744,-122 337.2744,-126 316.2744,-126 313.2744,-122 211.7256,-122 211.7256,-86 340.2744,-86 340.2744,-122"/>
<text text-anchor="middle" x="276" y="-99.8" font-family="Times,serif" font-size="14.00" fill="#000000">AppRoutingModule</text>
</g>
<!-- AppRoutingModule&#45;&gt;AppModule -->
<g id="edge4" class="edge">
<title>AppRoutingModule&#45;&gt;AppModule</title>
<path fill="none" stroke="#000000" d="M276,-122.0225C276,-139.3734 276,-163 276,-163 276,-163 373.0987,-163 373.0987,-163"/>
<polygon fill="#000000" stroke="#000000" points="373.0987,-166.5001 383.0987,-163 373.0986,-159.5001 373.0987,-166.5001"/>
</g>
<!-- MyCustomMaterialModule -->
<g id="node6" class="node">
<title>MyCustomMaterialModule</title>
<polygon fill="#8dd3c7" stroke="#000000" points="193.9776,-122 190.9776,-126 169.9776,-126 166.9776,-122 24.0224,-122 24.0224,-86 193.9776,-86 193.9776,-122"/>
<text text-anchor="middle" x="109" y="-99.8" font-family="Times,serif" font-size="14.00" fill="#000000">MyCustomMaterialModule</text>
</g>
<!-- MyCustomMaterialModule&#45;&gt;AppModule -->
<g id="edge5" class="edge">
<title>MyCustomMaterialModule&#45;&gt;AppModule</title>
<path fill="none" stroke="#000000" d="M109,-122.2843C109,-143.3211 109,-175 109,-175 109,-175 373.0376,-175 373.0376,-175"/>
<polygon fill="#000000" stroke="#000000" points="373.0377,-178.5001 383.0376,-175 373.0376,-171.5001 373.0377,-178.5001"/>
</g>
</g>
</svg>
